<svg id="visual" viewBox="0 0 1000 500" width="1000" height="500" xmlns="http://www.w3.org/2000/svg" xmlns:xlink="http://www.w3.org/1999/xlink" version="1.1"><rect x="0" y="0" width="1000" height="500" fill="#2E3047"></rect><path d="M0 377L11.8 376C23.7 375 47.3 373 71.2 373.3C95 373.7 119 376.3 142.8 379C166.7 381.7 190.3 384.3 214.2 385.2C238 386 262 385 285.8 383.8C309.7 382.7 333.3 381.3 357.2 381.2C381 381 405 382 428.8 378.8C452.7 375.7 476.3 368.3 500 365.2C523.7 362 547.3 363 571.2 366.5C595 370 619 376 642.8 376.5C666.7 377 690.3 372 714.2 372C738 372 762 377 785.8 378.3C809.7 379.7 833.3 377.3 857.2 376.8C881 376.3 905 377.7 928.8 377.2C952.7 376.7 976.3 374.3 988.2 373.2L1000 372L1000 501L988.2 501C976.3 501 952.7 501 928.8 501C905 501 881 501 857.2 501C833.3 501 809.7 501 785.8 501C762 501 738 501 714.2 501C690.3 501 666.7 501 642.8 501C619 501 595 501 571.2 501C547.3 501 523.7 501 500 501C476.3 501 452.7 501 428.8 501C405 501 381 501 357.2 501C333.3 501 309.7 501 285.8 501C262 501 238 501 214.2 501C190.3 501 166.7 501 142.8 501C119 501 95 501 71.2 501C47.3 501 23.7 501 11.8 501L0 501Z" fill="#953d75"></path><path d="M0 378L11.8 377.5C23.7 377 47.3 376 71.2 377.7C95 379.3 119 383.7 142.8 386.2C166.7 388.7 190.3 389.3 214.2 387.7C238 386 262 382 285.8 379.2C309.7 376.3 333.3 374.7 357.2 375.5C381 376.3 405 379.7 428.8 380.2C452.7 380.7 476.3 378.3 500 377.8C523.7 377.3 547.3 378.7 571.2 381.3C595 384 619 388 642.8 390.7C666.7 393.3 690.3 394.7 714.2 392.2C738 389.7 762 383.3 785.8 383C809.7 382.7 833.3 388.3 857.2 390.2C881 392 905 390 928.8 387.8C952.7 385.7 976.3 383.3 988.2 382.2L1000 381L1000 501L988.2 501C976.3 501 952.7 501 928.8 501C905 501 881 501 857.2 501C833.3 501 809.7 501 785.8 501C762 501 738 501 714.2 501C690.3 501 666.7 501 642.8 501C619 501 595 501 571.2 501C547.3 501 523.7 501 500 501C476.3 501 452.7 501 428.8 501C405 501 381 501 357.2 501C333.3 501 309.7 501 285.8 501C262 501 238 501 214.2 501C190.3 501 166.7 501 142.8 501C119 501 95 501 71.2 501C47.3 501 23.7 501 11.8 501L0 501Z" fill="#903c78"></path><path d="M0 386L11.8 387C23.7 388 47.3 390 71.2 390.7C95 391.3 119 390.7 142.8 392.7C166.7 394.7 190.3 399.3 214.2 401.8C238 404.3 262 404.7 285.8 404.3C309.7 404 333.3 403 357.2 402.5C381 402 405 402 428.8 398.8C452.7 395.7 476.3 389.3 500 386.5C523.7 383.7 547.3 384.3 571.2 384.3C595 384.3 619 383.7 642.8 386.2C666.7 388.7 690.3 394.3 714.2 396.2C738 398 762 396 785.8 394.2C809.7 392.3 833.3 390.7 857.2 389C881 387.3 905 385.7 928.8 386.8C952.7 388 976.3 392 988.2 394L1000 396L1000 501L988.2 501C976.3 501 952.7 501 928.8 501C905 501 881 501 857.2 501C833.3 501 809.7 501 785.8 501C762 501 738 501 714.2 501C690.3 501 666.7 501 642.8 501C619 501 595 501 571.2 501C547.3 501 523.7 501 500 501C476.3 501 452.7 501 428.8 501C405 501 381 501 357.2 501C333.3 501 309.7 501 285.8 501C262 501 238 501 214.2 501C190.3 501 166.7 501 142.8 501C119 501 95 501 71.2 501C47.3 501 23.7 501 11.8 501L0 501Z" fill="#8b3c7c"></path><path d="M0 404L11.8 405C23.7 406 47.3 408 71.2 407.8C95 407.7 119 405.3 142.8 403.5C166.7 401.7 190.3 400.3 214.2 400C238 399.7 262 400.3 285.8 400.3C309.7 400.3 333.3 399.7 357.2 399.7C381 399.7 405 400.3 428.8 401.2C452.7 402 476.3 403 500 401.7C523.7 400.3 547.3 396.7 571.2 395.7C595 394.7 619 396.3 642.8 399.3C666.7 402.3 690.3 406.7 714.2 407.2C738 407.7 762 404.3 785.8 404.7C809.7 405 833.3 409 857.2 407.5C881 406 905 399 928.8 397.8C952.7 396.7 976.3 401.3 988.2 403.7L1000 406L1000 501L988.2 501C976.3 501 952.7 501 928.8 501C905 501 881 501 857.2 501C833.3 501 809.7 501 785.8 501C762 501 738 501 714.2 501C690.3 501 666.7 501 642.8 501C619 501 595 501 571.2 501C547.3 501 523.7 501 500 501C476.3 501 452.7 501 428.8 501C405 501 381 501 357.2 501C333.3 501 309.7 501 285.8 501C262 501 238 501 214.2 501C190.3 501 166.7 501 142.8 501C119 501 95 501 71.2 501C47.3 501 23.7 501 11.8 501L0 501Z" fill="#863b7f"></path><path d="M0 423L11.8 422C23.7 421 47.3 419 71.2 416.8C95 414.7 119 412.3 142.8 412C166.7 411.7 190.3 413.3 214.2 415.8C238 418.3 262 421.7 285.8 420.8C309.7 420 333.3 415 357.2 412.7C381 410.3 405 410.7 428.8 412.5C452.7 414.3 476.3 417.7 500 417.7C523.7 417.7 547.3 414.3 571.2 414.3C595 414.3 619 417.7 642.8 418.2C666.7 418.7 690.3 416.3 714.2 417C738 417.7 762 421.3 785.8 422.8C809.7 424.3 833.3 423.7 857.2 422.8C881 422 905 421 928.8 419.3C952.7 417.7 976.3 415.3 988.2 414.2L1000 413L1000 501L988.2 501C976.3 501 952.7 501 928.8 501C905 501 881 501 857.2 501C833.3 501 809.7 501 785.8 501C762 501 738 501 714.2 501C690.3 501 666.7 501 642.8 501C619 501 595 501 571.2 501C547.3 501 523.7 501 500 501C476.3 501 452.7 501 428.8 501C405 501 381 501 357.2 501C333.3 501 309.7 501 285.8 501C262 501 238 501 214.2 501C190.3 501 166.7 501 142.8 501C119 501 95 501 71.2 501C47.3 501 23.7 501 11.8 501L0 501Z" fill="#7f3b82"></path><path d="M0 428L11.8 426.3C23.7 424.7 47.3 421.3 71.2 420.2C95 419 119 420 142.8 420.5C166.7 421 190.3 421 214.2 421.3C238 421.7 262 422.3 285.8 422.3C309.7 422.3 333.3 421.7 357.2 421.3C381 421 405 421 428.8 420C452.7 419 476.3 417 500 419.3C523.7 421.7 547.3 428.3 571.2 430.7C595 433 619 431 642.8 429.5C666.7 428 690.3 427 714.2 424.8C738 422.7 762 419.3 785.8 417.5C809.7 415.7 833.3 415.3 857.2 417.3C881 419.3 905 423.7 928.8 425.5C952.7 427.3 976.3 426.7 988.2 426.3L1000 426L1000 501L988.2 501C976.3 501 952.7 501 928.8 501C905 501 881 501 857.2 501C833.3 501 809.7 501 785.8 501C762 501 738 501 714.2 501C690.3 501 666.7 501 642.8 501C619 501 595 501 571.2 501C547.3 501 523.7 501 500 501C476.3 501 452.7 501 428.8 501C405 501 381 501 357.2 501C333.3 501 309.7 501 285.8 501C262 501 238 501 214.2 501C190.3 501 166.7 501 142.8 501C119 501 95 501 71.2 501C47.3 501 23.7 501 11.8 501L0 501Z" fill="#793c85"></path><path d="M0 439L11.8 439.7C23.7 440.3 47.3 441.7 71.2 439.8C95 438 119 433 142.8 431C166.7 429 190.3 430 214.2 430.5C238 431 262 431 285.8 432.8C309.7 434.7 333.3 438.3 357.2 438C381 437.7 405 433.3 428.8 432.8C452.7 432.3 476.3 435.7 500 435.5C523.7 435.3 547.3 431.7 571.2 431.5C595 431.3 619 434.7 642.8 435C666.7 435.3 690.3 432.7 714.2 431.8C738 431 762 432 785.8 432.5C809.7 433 833.3 433 857.2 432.5C881 432 905 431 928.8 431.8C952.7 432.7 976.3 435.3 988.2 436.7L1000 438L1000 501L988.2 501C976.3 501 952.7 501 928.8 501C905 501 881 501 857.2 501C833.3 501 809.7 501 785.8 501C762 501 738 501 714.2 501C690.3 501 666.7 501 642.8 501C619 501 595 501 571.2 501C547.3 501 523.7 501 500 501C476.3 501 452.7 501 428.8 501C405 501 381 501 357.2 501C333.3 501 309.7 501 285.8 501C262 501 238 501 214.2 501C190.3 501 166.7 501 142.8 501C119 501 95 501 71.2 501C47.3 501 23.7 501 11.8 501L0 501Z" fill="#713c88"></path><path d="M0 443L11.8 444.5C23.7 446 47.3 449 71.2 449.2C95 449.3 119 446.7 142.8 446.5C166.7 446.3 190.3 448.7 214.2 449.2C238 449.7 262 448.3 285.8 446C309.7 443.7 333.3 440.3 357.2 440.5C381 440.7 405 444.3 428.8 446.3C452.7 448.3 476.3 448.7 500 448.8C523.7 449 547.3 449 571.2 449C595 449 619 449 642.8 447C666.7 445 690.3 441 714.2 439.7C738 438.3 762 439.7 785.8 441.2C809.7 442.7 833.3 444.3 857.2 445.7C881 447 905 448 928.8 448.5C952.7 449 976.3 449 988.2 449L1000 449L1000 501L988.2 501C976.3 501 952.7 501 928.8 501C905 501 881 501 857.2 501C833.3 501 809.7 501 785.8 501C762 501 738 501 714.2 501C690.3 501 666.7 501 642.8 501C619 501 595 501 571.2 501C547.3 501 523.7 501 500 501C476.3 501 452.7 501 428.8 501C405 501 381 501 357.2 501C333.3 501 309.7 501 285.8 501C262 501 238 501 214.2 501C190.3 501 166.7 501 142.8 501C119 501 95 501 71.2 501C47.3 501 23.7 501 11.8 501L0 501Z" fill="#693d8b"></path><path d="M0 449L11.8 449.2C23.7 449.3 47.3 449.7 71.2 449.8C95 450 119 450 142.8 452.3C166.7 454.7 190.3 459.3 214.2 460C238 460.7 262 457.3 285.8 455.2C309.7 453 333.3 452 357.2 452.2C381 452.3 405 453.7 428.8 454.5C452.7 455.3 476.3 455.7 500 455.2C523.7 454.7 547.3 453.3 571.2 454.2C595 455 619 458 642.8 458.2C666.7 458.3 690.3 455.7 714.2 453.5C738 451.3 762 449.7 785.8 451.3C809.7 453 833.3 458 857.2 459C881 460 905 457 928.8 456.3C952.7 455.7 976.3 457.3 988.2 458.2L1000 459L1000 501L988.2 501C976.3 501 952.7 501 928.8 501C905 501 881 501 857.2 501C833.3 501 809.7 501 785.8 501C762 501 738 501 714.2 501C690.3 501 666.7 501 642.8 501C619 501 595 501 571.2 501C547.3 501 523.7 501 500 501C476.3 501 452.7 501 428.8 501C405 501 381 501 357.2 501C333.3 501 309.7 501 285.8 501C262 501 238 501 214.2 501C190.3 501 166.7 501 142.8 501C119 501 95 501 71.2 501C47.3 501 23.7 501 11.8 501L0 501Z" fill="#603e8e"></path><path d="M0 473L11.8 472.5C23.7 472 47.3 471 71.2 471.2C95 471.3 119 472.7 142.8 473.5C166.7 474.3 190.3 474.7 214.2 472C238 469.3 262 463.7 285.8 461.2C309.7 458.7 333.3 459.3 357.2 459.5C381 459.7 405 459.3 428.8 460C452.7 460.7 476.3 462.3 500 464.5C523.7 466.7 547.3 469.3 571.2 468.8C595 468.3 619 464.7 642.8 463.8C666.7 463 690.3 465 714.2 465.7C738 466.3 762 465.7 785.8 465.8C809.7 466 833.3 467 857.2 467.5C881 468 905 468 928.8 468.7C952.7 469.3 976.3 470.7 988.2 471.3L1000 472L1000 501L988.2 501C976.3 501 952.7 501 928.8 501C905 501 881 501 857.2 501C833.3 501 809.7 501 785.8 501C762 501 738 501 714.2 501C690.3 501 666.7 501 642.8 501C619 501 595 501 571.2 501C547.3 501 523.7 501 500 501C476.3 501 452.7 501 428.8 501C405 501 381 501 357.2 501C333.3 501 309.7 501 285.8 501C262 501 238 501 214.2 501C190.3 501 166.7 501 142.8 501C119 501 95 501 71.2 501C47.3 501 23.7 501 11.8 501L0 501Z" fill="#573e90"></path><path d="M0 478L11.8 477.3C23.7 476.7 47.3 475.3 71.2 475.2C95 475 119 476 142.8 475.3C166.7 474.7 190.3 472.3 214.2 472.8C238 473.3 262 476.7 285.8 477C309.7 477.3 333.3 474.7 357.2 475.5C381 476.3 405 480.7 428.8 482.8C452.7 485 476.3 485 500 484.2C523.7 483.3 547.3 481.7 571.2 481.2C595 480.7 619 481.3 642.8 481C666.7 480.7 690.3 479.3 714.2 479.7C738 480 762 482 785.8 482.5C809.7 483 833.3 482 857.2 480.2C881 478.3 905 475.7 928.8 475.5C952.7 475.3 976.3 477.7 988.2 478.8L1000 480L1000 501L988.2 501C976.3 501 952.7 501 928.8 501C905 501 881 501 857.2 501C833.3 501 809.7 501 785.8 501C762 501 738 501 714.2 501C690.3 501 666.7 501 642.8 501C619 501 595 501 571.2 501C547.3 501 523.7 501 500 501C476.3 501 452.7 501 428.8 501C405 501 381 501 357.2 501C333.3 501 309.7 501 285.8 501C262 501 238 501 214.2 501C190.3 501 166.7 501 142.8 501C119 501 95 501 71.2 501C47.3 501 23.7 501 11.8 501L0 501Z" fill="#4b3f92"></path><path d="M0 487L11.8 486.2C23.7 485.3 47.3 483.7 71.2 483.5C95 483.3 119 484.7 142.8 486.5C166.7 488.3 190.3 490.7 214.2 490C238 489.3 262 485.7 285.8 484.2C309.7 482.7 333.3 483.3 357.2 484.3C381 485.3 405 486.7 428.8 488.2C452.7 489.7 476.3 491.3 500 491.3C523.7 491.3 547.3 489.7 571.2 488.8C595 488 619 488 642.8 488.3C666.7 488.7 690.3 489.3 714.2 489.7C738 490 762 490 785.8 489.3C809.7 488.7 833.3 487.3 857.2 486.8C881 486.3 905 486.7 928.8 486.7C952.7 486.7 976.3 486.3 988.2 486.2L1000 486L1000 501L988.2 501C976.3 501 952.7 501 928.8 501C905 501 881 501 857.2 501C833.3 501 809.7 501 785.8 501C762 501 738 501 714.2 501C690.3 501 666.7 501 642.8 501C619 501 595 501 571.2 501C547.3 501 523.7 501 500 501C476.3 501 452.7 501 428.8 501C405 501 381 501 357.2 501C333.3 501 309.7 501 285.8 501C262 501 238 501 214.2 501C190.3 501 166.7 501 142.8 501C119 501 95 501 71.2 501C47.3 501 23.7 501 11.8 501L0 501Z" fill="#3e4094"></path></svg>