<svg id="visual" viewBox="0 0 900 600" width="900" height="600" xmlns="http://www.w3.org/2000/svg" xmlns:xlink="http://www.w3.org/1999/xlink" version="1.1"><rect x="0" y="0" width="900" height="600" fill="#3c3f58"></rect><path d="M0 469L6.5 471.3C13 473.7 26 478.3 39 477.3C52 476.3 65 469.7 78 468.8C91 468 104 473 117.2 476.2C130.3 479.3 143.7 480.7 156.8 478.5C170 476.3 183 470.7 196 470.7C209 470.7 222 476.3 235 476.5C248 476.7 261 471.3 274 471.3C287 471.3 300 476.7 313 478.5C326 480.3 339 478.7 352 476.2C365 473.7 378 470.3 391 468.8C404 467.3 417 467.7 430.2 467.3C443.3 467 456.7 466 469.8 468.5C483 471 496 477 509 478.3C522 479.7 535 476.3 548 473C561 469.7 574 466.3 587 466.7C600 467 613 471 626 471.3C639 471.7 652 468.3 665 466.8C678 465.3 691 465.7 704 467.8C717 470 730 474 743.2 473.8C756.3 473.7 769.7 469.3 782.8 469.2C796 469 809 473 822 473.2C835 473.3 848 469.7 861 470.8C874 472 887 478 893.5 481L900 484L900 601L893.5 601C887 601 874 601 861 601C848 601 835 601 822 601C809 601 796 601 782.8 601C769.7 601 756.3 601 743.2 601C730 601 717 601 704 601C691 601 678 601 665 601C652 601 639 601 626 601C613 601 600 601 587 601C574 601 561 601 548 601C535 601 522 601 509 601C496 601 483 601 469.8 601C456.7 601 443.3 601 430.2 601C417 601 404 601 391 601C378 601 365 601 352 601C339 601 326 601 313 601C300 601 287 601 274 601C261 601 248 601 235 601C222 601 209 601 196 601C183 601 170 601 156.8 601C143.7 601 130.3 601 117.2 601C104 601 91 601 78 601C65 601 52 601 39 601C26 601 13 601 6.5 601L0 601Z" fill="#5e42a6"></path><path d="M0 495L6.5 492.8C13 490.7 26 486.3 39 485.8C52 485.3 65 488.7 78 487.8C91 487 104 482 117.2 481.3C130.3 480.7 143.7 484.3 156.8 487.2C170 490 183 492 196 493C209 494 222 494 235 491.2C248 488.3 261 482.7 274 480C287 477.3 300 477.7 313 479C326 480.3 339 482.7 352 483C365 483.3 378 481.7 391 483.3C404 485 417 490 430.2 489.7C443.3 489.3 456.7 483.7 469.8 483.2C483 482.7 496 487.3 509 489.2C522 491 535 490 548 488.5C561 487 574 485 587 483C600 481 613 479 626 480.7C639 482.3 652 487.7 665 489.5C678 491.3 691 489.7 704 487.2C717 484.7 730 481.3 743.2 480.8C756.3 480.3 769.7 482.7 782.8 483C796 483.3 809 481.7 822 482.2C835 482.7 848 485.3 861 487.3C874 489.3 887 490.7 893.5 491.3L900 492L900 601L893.5 601C887 601 874 601 861 601C848 601 835 601 822 601C809 601 796 601 782.8 601C769.7 601 756.3 601 743.2 601C730 601 717 601 704 601C691 601 678 601 665 601C652 601 639 601 626 601C613 601 600 601 587 601C574 601 561 601 548 601C535 601 522 601 509 601C496 601 483 601 469.8 601C456.7 601 443.3 601 430.2 601C417 601 404 601 391 601C378 601 365 601 352 601C339 601 326 601 313 601C300 601 287 601 274 601C261 601 248 601 235 601C222 601 209 601 196 601C183 601 170 601 156.8 601C143.7 601 130.3 601 117.2 601C104 601 91 601 78 601C65 601 52 601 39 601C26 601 13 601 6.5 601L0 601Z" fill="#6e42a4"></path><path d="M0 498L6.5 499.7C13 501.3 26 504.7 39 505.5C52 506.3 65 504.7 78 503.2C91 501.7 104 500.3 117.2 499C130.3 497.7 143.7 496.3 156.8 496.5C170 496.7 183 498.3 196 500.5C209 502.7 222 505.3 235 505.5C248 505.7 261 503.3 274 502.5C287 501.7 300 502.3 313 502.5C326 502.7 339 502.3 352 502.5C365 502.7 378 503.3 391 502.5C404 501.7 417 499.3 430.2 497.8C443.3 496.3 456.7 495.7 469.8 495C483 494.3 496 493.7 509 495.5C522 497.3 535 501.7 548 501.3C561 501 574 496 587 496.3C600 496.7 613 502.3 626 503C639 503.7 652 499.3 665 497.5C678 495.7 691 496.3 704 498C717 499.7 730 502.3 743.2 504.2C756.3 506 769.7 507 782.8 505.8C796 504.7 809 501.3 822 499.5C835 497.7 848 497.3 861 496.5C874 495.7 887 494.3 893.5 493.7L900 493L900 601L893.5 601C887 601 874 601 861 601C848 601 835 601 822 601C809 601 796 601 782.8 601C769.7 601 756.3 601 743.2 601C730 601 717 601 704 601C691 601 678 601 665 601C652 601 639 601 626 601C613 601 600 601 587 601C574 601 561 601 548 601C535 601 522 601 509 601C496 601 483 601 469.8 601C456.7 601 443.3 601 430.2 601C417 601 404 601 391 601C378 601 365 601 352 601C339 601 326 601 313 601C300 601 287 601 274 601C261 601 248 601 235 601C222 601 209 601 196 601C183 601 170 601 156.8 601C143.7 601 130.3 601 117.2 601C104 601 91 601 78 601C65 601 52 601 39 601C26 601 13 601 6.5 601L0 601Z" fill="#7b42a2"></path><path d="M0 513L6.5 513.7C13 514.3 26 515.7 39 514.7C52 513.7 65 510.3 78 509C91 507.7 104 508.3 117.2 509.2C130.3 510 143.7 511 156.8 512C170 513 183 514 196 513.3C209 512.7 222 510.3 235 509.8C248 509.3 261 510.7 274 511.5C287 512.3 300 512.7 313 513C326 513.3 339 513.7 352 512.7C365 511.7 378 509.3 391 508.5C404 507.7 417 508.3 430.2 509.5C443.3 510.7 456.7 512.3 469.8 513.5C483 514.7 496 515.3 509 516.2C522 517 535 518 548 517.2C561 516.3 574 513.7 587 512.7C600 511.7 613 512.3 626 511.7C639 511 652 509 665 509.5C678 510 691 513 704 513.3C717 513.7 730 511.3 743.2 511.7C756.3 512 769.7 515 782.8 514.5C796 514 809 510 822 509.8C835 509.7 848 513.3 861 513.7C874 514 887 511 893.5 509.5L900 508L900 601L893.5 601C887 601 874 601 861 601C848 601 835 601 822 601C809 601 796 601 782.8 601C769.7 601 756.3 601 743.2 601C730 601 717 601 704 601C691 601 678 601 665 601C652 601 639 601 626 601C613 601 600 601 587 601C574 601 561 601 548 601C535 601 522 601 509 601C496 601 483 601 469.8 601C456.7 601 443.3 601 430.2 601C417 601 404 601 391 601C378 601 365 601 352 601C339 601 326 601 313 601C300 601 287 601 274 601C261 601 248 601 235 601C222 601 209 601 196 601C183 601 170 601 156.8 601C143.7 601 130.3 601 117.2 601C104 601 91 601 78 601C65 601 52 601 39 601C26 601 13 601 6.5 601L0 601Z" fill="#8843a0"></path><path d="M0 529L6.5 529.5C13 530 26 531 39 530.8C52 530.7 65 529.3 78 529C91 528.7 104 529.3 117.2 528.7C130.3 528 143.7 526 156.8 526.3C170 526.7 183 529.3 196 530.3C209 531.3 222 530.7 235 530.7C248 530.7 261 531.3 274 530C287 528.7 300 525.3 313 524.8C326 524.3 339 526.7 352 528C365 529.3 378 529.7 391 529.7C404 529.7 417 529.3 430.2 528.7C443.3 528 456.7 527 469.8 526C483 525 496 524 509 524.5C522 525 535 527 548 527.7C561 528.3 574 527.7 587 527.3C600 527 613 527 626 526C639 525 652 523 665 524.2C678 525.3 691 529.7 704 530.2C717 530.7 730 527.3 743.2 526.3C756.3 525.3 769.7 526.7 782.8 526.3C796 526 809 524 822 523.8C835 523.7 848 525.3 861 526C874 526.7 887 526.3 893.5 526.2L900 526L900 601L893.5 601C887 601 874 601 861 601C848 601 835 601 822 601C809 601 796 601 782.8 601C769.7 601 756.3 601 743.2 601C730 601 717 601 704 601C691 601 678 601 665 601C652 601 639 601 626 601C613 601 600 601 587 601C574 601 561 601 548 601C535 601 522 601 509 601C496 601 483 601 469.8 601C456.7 601 443.3 601 430.2 601C417 601 404 601 391 601C378 601 365 601 352 601C339 601 326 601 313 601C300 601 287 601 274 601C261 601 248 601 235 601C222 601 209 601 196 601C183 601 170 601 156.8 601C143.7 601 130.3 601 117.2 601C104 601 91 601 78 601C65 601 52 601 39 601C26 601 13 601 6.5 601L0 601Z" fill="#93449d"></path><path d="M0 541L6.5 540.7C13 540.3 26 539.7 39 539.7C52 539.7 65 540.3 78 541.2C91 542 104 543 117.2 542.2C130.3 541.3 143.7 538.7 156.8 537.5C170 536.3 183 536.7 196 536.8C209 537 222 537 235 537.5C248 538 261 539 274 539.3C287 539.7 300 539.3 313 540.3C326 541.3 339 543.7 352 544C365 544.3 378 542.7 391 542.7C404 542.7 417 544.3 430.2 545.2C443.3 546 456.7 546 469.8 544.8C483 543.7 496 541.3 509 541.3C522 541.3 535 543.7 548 543.8C561 544 574 542 587 541C600 540 613 540 626 539.8C639 539.7 652 539.3 665 539.3C678 539.3 691 539.7 704 538.8C717 538 730 536 743.2 536.5C756.3 537 769.7 540 782.8 541C796 542 809 541 822 541.3C835 541.7 848 543.3 861 544.2C874 545 887 545 893.5 545L900 545L900 601L893.5 601C887 601 874 601 861 601C848 601 835 601 822 601C809 601 796 601 782.8 601C769.7 601 756.3 601 743.2 601C730 601 717 601 704 601C691 601 678 601 665 601C652 601 639 601 626 601C613 601 600 601 587 601C574 601 561 601 548 601C535 601 522 601 509 601C496 601 483 601 469.8 601C456.7 601 443.3 601 430.2 601C417 601 404 601 391 601C378 601 365 601 352 601C339 601 326 601 313 601C300 601 287 601 274 601C261 601 248 601 235 601C222 601 209 601 196 601C183 601 170 601 156.8 601C143.7 601 130.3 601 117.2 601C104 601 91 601 78 601C65 601 52 601 39 601C26 601 13 601 6.5 601L0 601Z" fill="#9d469a"></path><path d="M0 558L6.5 557.2C13 556.3 26 554.7 39 553.3C52 552 65 551 78 552C91 553 104 556 117.2 557.2C130.3 558.3 143.7 557.7 156.8 557.7C170 557.7 183 558.3 196 557.2C209 556 222 553 235 551.7C248 550.3 261 550.7 274 551.2C287 551.7 300 552.3 313 552.3C326 552.3 339 551.7 352 552.3C365 553 378 555 391 554.8C404 554.7 417 552.3 430.2 552.2C443.3 552 456.7 554 469.8 555.5C483 557 496 558 509 557.8C522 557.7 535 556.3 548 555C561 553.7 574 552.3 587 552.3C600 552.3 613 553.7 626 553.7C639 553.7 652 552.3 665 552.3C678 552.3 691 553.7 704 554C717 554.3 730 553.7 743.2 554.3C756.3 555 769.7 557 782.8 556.5C796 556 809 553 822 552.2C835 551.3 848 552.7 861 553.2C874 553.7 887 553.3 893.5 553.2L900 553L900 601L893.5 601C887 601 874 601 861 601C848 601 835 601 822 601C809 601 796 601 782.8 601C769.7 601 756.3 601 743.2 601C730 601 717 601 704 601C691 601 678 601 665 601C652 601 639 601 626 601C613 601 600 601 587 601C574 601 561 601 548 601C535 601 522 601 509 601C496 601 483 601 469.8 601C456.7 601 443.3 601 430.2 601C417 601 404 601 391 601C378 601 365 601 352 601C339 601 326 601 313 601C300 601 287 601 274 601C261 601 248 601 235 601C222 601 209 601 196 601C183 601 170 601 156.8 601C143.7 601 130.3 601 117.2 601C104 601 91 601 78 601C65 601 52 601 39 601C26 601 13 601 6.5 601L0 601Z" fill="#a74897"></path><path d="M0 566L6.5 565.7C13 565.3 26 564.7 39 565.5C52 566.3 65 568.7 78 568.5C91 568.3 104 565.7 117.2 565.7C130.3 565.7 143.7 568.3 156.8 569.7C170 571 183 571 196 569.8C209 568.7 222 566.3 235 566.2C248 566 261 568 274 568.5C287 569 300 568 313 567C326 566 339 565 352 565C365 565 378 566 391 566C404 566 417 565 430.2 565.2C443.3 565.3 456.7 566.7 469.8 566.7C483 566.7 496 565.3 509 564.7C522 564 535 564 548 564.8C561 565.7 574 567.3 587 568C600 568.7 613 568.3 626 568.7C639 569 652 570 665 570.5C678 571 691 571 704 570.7C717 570.3 730 569.7 743.2 568.5C756.3 567.3 769.7 565.7 782.8 565C796 564.3 809 564.7 822 566C835 567.3 848 569.7 861 569.5C874 569.3 887 566.7 893.5 565.3L900 564L900 601L893.5 601C887 601 874 601 861 601C848 601 835 601 822 601C809 601 796 601 782.8 601C769.7 601 756.3 601 743.2 601C730 601 717 601 704 601C691 601 678 601 665 601C652 601 639 601 626 601C613 601 600 601 587 601C574 601 561 601 548 601C535 601 522 601 509 601C496 601 483 601 469.8 601C456.7 601 443.3 601 430.2 601C417 601 404 601 391 601C378 601 365 601 352 601C339 601 326 601 313 601C300 601 287 601 274 601C261 601 248 601 235 601C222 601 209 601 196 601C183 601 170 601 156.8 601C143.7 601 130.3 601 117.2 601C104 601 91 601 78 601C65 601 52 601 39 601C26 601 13 601 6.5 601L0 601Z" fill="#af4b94"></path><path d="M0 584L6.5 583C13 582 26 580 39 579.3C52 578.7 65 579.3 78 579.3C91 579.3 104 578.7 117.2 578.7C130.3 578.7 143.7 579.3 156.8 580.3C170 581.3 183 582.7 196 582.5C209 582.3 222 580.7 235 580C248 579.3 261 579.7 274 579.5C287 579.3 300 578.7 313 578.7C326 578.7 339 579.3 352 579.7C365 580 378 580 391 579.8C404 579.7 417 579.3 430.2 579.3C443.3 579.3 456.7 579.7 469.8 579.8C483 580 496 580 509 580.3C522 580.7 535 581.3 548 581.5C561 581.7 574 581.3 587 580.7C600 580 613 579 626 579.2C639 579.3 652 580.7 665 581.3C678 582 691 582 704 581.7C717 581.3 730 580.7 743.2 580C756.3 579.3 769.7 578.7 782.8 578.5C796 578.3 809 578.7 822 579.7C835 580.7 848 582.3 861 583C874 583.7 887 583.3 893.5 583.2L900 583L900 601L893.5 601C887 601 874 601 861 601C848 601 835 601 822 601C809 601 796 601 782.8 601C769.7 601 756.3 601 743.2 601C730 601 717 601 704 601C691 601 678 601 665 601C652 601 639 601 626 601C613 601 600 601 587 601C574 601 561 601 548 601C535 601 522 601 509 601C496 601 483 601 469.8 601C456.7 601 443.3 601 430.2 601C417 601 404 601 391 601C378 601 365 601 352 601C339 601 326 601 313 601C300 601 287 601 274 601C261 601 248 601 235 601C222 601 209 601 196 601C183 601 170 601 156.8 601C143.7 601 130.3 601 117.2 601C104 601 91 601 78 601C65 601 52 601 39 601C26 601 13 601 6.5 601L0 601Z" fill="#b74e91"></path></svg>