<svg id="visual" viewBox="0 0 900 600" width="900" height="600" xmlns="http://www.w3.org/2000/svg" xmlns:xlink="http://www.w3.org/1999/xlink" version="1.1"><rect x="0" y="0" width="900" height="600" fill="#2E3047"></rect><path d="M0 458L18.8 460.7C37.7 463.3 75.3 468.7 112.8 471.8C150.3 475 187.7 476 225.2 475.5C262.7 475 300.3 473 337.8 471.5C375.3 470 412.7 469 450.2 469.8C487.7 470.7 525.3 473.3 562.8 474.8C600.3 476.3 637.7 476.7 675.2 475.2C712.7 473.7 750.3 470.3 787.8 470C825.3 469.7 862.7 472.3 881.3 473.7L900 475L900 601L881.3 601C862.7 601 825.3 601 787.8 601C750.3 601 712.7 601 675.2 601C637.7 601 600.3 601 562.8 601C525.3 601 487.7 601 450.2 601C412.7 601 375.3 601 337.8 601C300.3 601 262.7 601 225.2 601C187.7 601 150.3 601 112.8 601C75.3 601 37.7 601 18.8 601L0 601Z" fill="#5f42a6"></path><path d="M0 468L18.8 472C37.7 476 75.3 484 112.8 487.5C150.3 491 187.7 490 225.2 489.5C262.7 489 300.3 489 337.8 487.7C375.3 486.3 412.7 483.7 450.2 483.8C487.7 484 525.3 487 562.8 486C600.3 485 637.7 480 675.2 476.2C712.7 472.3 750.3 469.7 787.8 473C825.3 476.3 862.7 485.7 881.3 490.3L900 495L900 601L881.3 601C862.7 601 825.3 601 787.8 601C750.3 601 712.7 601 675.2 601C637.7 601 600.3 601 562.8 601C525.3 601 487.7 601 450.2 601C412.7 601 375.3 601 337.8 601C300.3 601 262.7 601 225.2 601C187.7 601 150.3 601 112.8 601C75.3 601 37.7 601 18.8 601L0 601Z" fill="#6b42a5"></path><path d="M0 485L18.8 487.2C37.7 489.3 75.3 493.7 112.8 495.5C150.3 497.3 187.7 496.7 225.2 497.3C262.7 498 300.3 500 337.8 500.8C375.3 501.7 412.7 501.3 450.2 498.8C487.7 496.3 525.3 491.7 562.8 489.8C600.3 488 637.7 489 675.2 488.3C712.7 487.7 750.3 485.3 787.8 483.5C825.3 481.7 862.7 480.3 881.3 479.7L900 479L900 601L881.3 601C862.7 601 825.3 601 787.8 601C750.3 601 712.7 601 675.2 601C637.7 601 600.3 601 562.8 601C525.3 601 487.7 601 450.2 601C412.7 601 375.3 601 337.8 601C300.3 601 262.7 601 225.2 601C187.7 601 150.3 601 112.8 601C75.3 601 37.7 601 18.8 601L0 601Z" fill="#7542a3"></path><path d="M0 494L18.8 496.3C37.7 498.7 75.3 503.3 112.8 504.2C150.3 505 187.7 502 225.2 502.8C262.7 503.7 300.3 508.3 337.8 508.7C375.3 509 412.7 505 450.2 505C487.7 505 525.3 509 562.8 508.2C600.3 507.3 637.7 501.7 675.2 500C712.7 498.3 750.3 500.7 787.8 501.3C825.3 502 862.7 501 881.3 500.5L900 500L900 601L881.3 601C862.7 601 825.3 601 787.8 601C750.3 601 712.7 601 675.2 601C637.7 601 600.3 601 562.8 601C525.3 601 487.7 601 450.2 601C412.7 601 375.3 601 337.8 601C300.3 601 262.7 601 225.2 601C187.7 601 150.3 601 112.8 601C75.3 601 37.7 601 18.8 601L0 601Z" fill="#7f42a2"></path><path d="M0 514L18.8 512C37.7 510 75.3 506 112.8 505.8C150.3 505.7 187.7 509.3 225.2 510.3C262.7 511.3 300.3 509.7 337.8 511C375.3 512.3 412.7 516.7 450.2 517.7C487.7 518.7 525.3 516.3 562.8 514.5C600.3 512.7 637.7 511.3 675.2 512C712.7 512.7 750.3 515.3 787.8 515.5C825.3 515.7 862.7 513.3 881.3 512.2L900 511L900 601L881.3 601C862.7 601 825.3 601 787.8 601C750.3 601 712.7 601 675.2 601C637.7 601 600.3 601 562.8 601C525.3 601 487.7 601 450.2 601C412.7 601 375.3 601 337.8 601C300.3 601 262.7 601 225.2 601C187.7 601 150.3 601 112.8 601C75.3 601 37.7 601 18.8 601L0 601Z" fill="#8843a0"></path><path d="M0 518L18.8 518.7C37.7 519.3 75.3 520.7 112.8 521.3C150.3 522 187.7 522 225.2 522.2C262.7 522.3 300.3 522.7 337.8 523C375.3 523.3 412.7 523.7 450.2 522.8C487.7 522 525.3 520 562.8 520C600.3 520 637.7 522 675.2 522C712.7 522 750.3 520 787.8 519C825.3 518 862.7 518 881.3 518L900 518L900 601L881.3 601C862.7 601 825.3 601 787.8 601C750.3 601 712.7 601 675.2 601C637.7 601 600.3 601 562.8 601C525.3 601 487.7 601 450.2 601C412.7 601 375.3 601 337.8 601C300.3 601 262.7 601 225.2 601C187.7 601 150.3 601 112.8 601C75.3 601 37.7 601 18.8 601L0 601Z" fill="#90449e"></path><path d="M0 536L18.8 534.8C37.7 533.7 75.3 531.3 112.8 530.8C150.3 530.3 187.7 531.7 225.2 532.3C262.7 533 300.3 533 337.8 533.8C375.3 534.7 412.7 536.3 450.2 535C487.7 533.7 525.3 529.3 562.8 528.2C600.3 527 637.7 529 675.2 530.5C712.7 532 750.3 533 787.8 533.2C825.3 533.3 862.7 532.7 881.3 532.3L900 532L900 601L881.3 601C862.7 601 825.3 601 787.8 601C750.3 601 712.7 601 675.2 601C637.7 601 600.3 601 562.8 601C525.3 601 487.7 601 450.2 601C412.7 601 375.3 601 337.8 601C300.3 601 262.7 601 225.2 601C187.7 601 150.3 601 112.8 601C75.3 601 37.7 601 18.8 601L0 601Z" fill="#98459c"></path><path d="M0 540L18.8 539.8C37.7 539.7 75.3 539.3 112.8 539C150.3 538.7 187.7 538.3 225.2 537.7C262.7 537 300.3 536 337.8 536.3C375.3 536.7 412.7 538.3 450.2 539.8C487.7 541.3 525.3 542.7 562.8 542.5C600.3 542.3 637.7 540.7 675.2 539.3C712.7 538 750.3 537 787.8 538.3C825.3 539.7 862.7 543.3 881.3 545.2L900 547L900 601L881.3 601C862.7 601 825.3 601 787.8 601C750.3 601 712.7 601 675.2 601C637.7 601 600.3 601 562.8 601C525.3 601 487.7 601 450.2 601C412.7 601 375.3 601 337.8 601C300.3 601 262.7 601 225.2 601C187.7 601 150.3 601 112.8 601C75.3 601 37.7 601 18.8 601L0 601Z" fill="#9f469a"></path><path d="M0 551L18.8 552.5C37.7 554 75.3 557 112.8 557.7C150.3 558.3 187.7 556.7 225.2 556.5C262.7 556.3 300.3 557.7 337.8 557.5C375.3 557.3 412.7 555.7 450.2 554.3C487.7 553 525.3 552 562.8 552.8C600.3 553.7 637.7 556.3 675.2 556C712.7 555.7 750.3 552.3 787.8 550.8C825.3 549.3 862.7 549.7 881.3 549.8L900 550L900 601L881.3 601C862.7 601 825.3 601 787.8 601C750.3 601 712.7 601 675.2 601C637.7 601 600.3 601 562.8 601C525.3 601 487.7 601 450.2 601C412.7 601 375.3 601 337.8 601C300.3 601 262.7 601 225.2 601C187.7 601 150.3 601 112.8 601C75.3 601 37.7 601 18.8 601L0 601Z" fill="#a64798"></path><path d="M0 562L18.8 563.3C37.7 564.7 75.3 567.3 112.8 568.5C150.3 569.7 187.7 569.3 225.2 569.3C262.7 569.3 300.3 569.7 337.8 569.3C375.3 569 412.7 568 450.2 567C487.7 566 525.3 565 562.8 565C600.3 565 637.7 566 675.2 565.5C712.7 565 750.3 563 787.8 561.7C825.3 560.3 862.7 559.7 881.3 559.3L900 559L900 601L881.3 601C862.7 601 825.3 601 787.8 601C750.3 601 712.7 601 675.2 601C637.7 601 600.3 601 562.8 601C525.3 601 487.7 601 450.2 601C412.7 601 375.3 601 337.8 601C300.3 601 262.7 601 225.2 601C187.7 601 150.3 601 112.8 601C75.3 601 37.7 601 18.8 601L0 601Z" fill="#ac4995"></path><path d="M0 572L18.8 571.8C37.7 571.7 75.3 571.3 112.8 572.2C150.3 573 187.7 575 225.2 576.2C262.7 577.3 300.3 577.7 337.8 577.3C375.3 577 412.7 576 450.2 574.8C487.7 573.7 525.3 572.3 562.8 572.8C600.3 573.3 637.7 575.7 675.2 575.5C712.7 575.3 750.3 572.7 787.8 571.3C825.3 570 862.7 570 881.3 570L900 570L900 601L881.3 601C862.7 601 825.3 601 787.8 601C750.3 601 712.7 601 675.2 601C637.7 601 600.3 601 562.8 601C525.3 601 487.7 601 450.2 601C412.7 601 375.3 601 337.8 601C300.3 601 262.7 601 225.2 601C187.7 601 150.3 601 112.8 601C75.3 601 37.7 601 18.8 601L0 601Z" fill="#b24c93"></path><path d="M0 584L18.8 584.8C37.7 585.7 75.3 587.3 112.8 588.2C150.3 589 187.7 589 225.2 588.3C262.7 587.7 300.3 586.3 337.8 585C375.3 583.7 412.7 582.3 450.2 581.7C487.7 581 525.3 581 562.8 581.3C600.3 581.7 637.7 582.3 675.2 583.2C712.7 584 750.3 585 787.8 585.8C825.3 586.7 862.7 587.3 881.3 587.7L900 588L900 601L881.3 601C862.7 601 825.3 601 787.8 601C750.3 601 712.7 601 675.2 601C637.7 601 600.3 601 562.8 601C525.3 601 487.7 601 450.2 601C412.7 601 375.3 601 337.8 601C300.3 601 262.7 601 225.2 601C187.7 601 150.3 601 112.8 601C75.3 601 37.7 601 18.8 601L0 601Z" fill="#b74e91"></path></svg>